<svg width="34" height="33" viewBox="0 0 34 33" fill="none" xmlns="http://www.w3.org/2000/svg">
<path d="M17 0C14.7675 0 12.5569 0.437381 10.4944 1.28717C8.43185 2.13696 6.55778 3.38251 4.97918 4.95272C1.79107 8.12389 0 12.4249 0 16.9096C0 24.3837 4.879 30.7248 11.628 32.9738C12.478 33.1091 12.75 32.5849 12.75 32.1283V29.2706C8.041 30.2852 7.038 27.0047 7.038 27.0047C6.256 25.0432 5.151 24.519 5.151 24.519C3.604 23.4706 5.27 23.5044 5.27 23.5044C6.97 23.6228 7.871 25.2461 7.871 25.2461C9.35 27.8164 11.849 27.0554 12.818 26.6496C12.971 25.5505 13.413 24.8064 13.889 24.3837C10.115 23.961 6.154 22.5067 6.154 16.0642C6.154 14.1872 6.8 12.6822 7.905 11.4816C7.735 11.0589 7.14 9.3003 8.075 7.0175C8.075 7.0175 9.503 6.56094 12.75 8.74229C14.093 8.37027 15.555 8.18427 17 8.18427C18.445 8.18427 19.907 8.37027 21.25 8.74229C24.497 6.56094 25.925 7.0175 25.925 7.0175C26.86 9.3003 26.265 11.0589 26.095 11.4816C27.2 12.6822 27.846 14.1872 27.846 16.0642C27.846 22.5236 23.868 23.9441 20.077 24.3668C20.689 24.891 21.25 25.9225 21.25 27.4951V32.1283C21.25 32.5849 21.522 33.126 22.389 32.9738C29.138 30.7079 34 24.3837 34 16.9096C34 14.689 33.5603 12.4902 32.706 10.4386C31.8516 8.38703 30.5994 6.52293 29.0208 4.95272C27.4422 3.38251 25.5682 2.13696 23.5056 1.28717C21.4431 0.437381 19.2325 0 17 0Z" fill="black"/>
</svg>
